<svg width="22" height="24" viewBox="0 0 22 24" fill="none" xmlns="http://www.w3.org/2000/svg">
<g clip-path="url(#clip0)">
<g filter="url(#filter0_d)">
<path d="M17.1621 14.5402H16.9359V16.3079V16.7331L18.8524 14.5402H18.6905H17.1621Z" fill="#8E8E92"/>
<path d="M6.75119 2.01626V0.220627C6.74361 0.161725 6.7183 0.10797 6.67986 0.0691222C6.64142 0.0302746 6.5924 0.00891113 6.54169 0.00891113C6.49099 0.00891113 6.44196 0.0302746 6.40351 0.0691222C6.36508 0.10797 6.33977 0.161725 6.33218 0.220627V1.99668C6.24537 2.03987 6.17143 2.11236 6.11972 2.20498C6.06801 2.2976 6.04087 2.40616 6.04174 2.51691C6.04174 2.66749 6.09265 2.81191 6.18328 2.91839C6.27392 3.02487 6.39685 3.08469 6.52502 3.08469C6.6532 3.08469 6.77612 3.02487 6.86676 2.91839C6.95739 2.81191 7.00831 2.66749 7.00831 2.51691C7.00893 2.41372 6.98524 2.31233 6.93986 2.22397C6.89449 2.13561 6.82919 2.06373 6.75119 2.01626Z" fill="#8E8E92"/>
<path d="M9.59372 1.98549V0.220627C9.58618 0.161725 9.56088 0.10797 9.52246 0.0691222C9.48396 0.0302746 9.43493 0.00891113 9.38425 0.00891113C9.33357 0.00891113 9.28454 0.0302746 9.24604 0.0691222C9.20762 0.10797 9.18232 0.161725 9.17478 0.220627V2.03025C9.10241 2.07929 9.04239 2.14982 9.00059 2.23474C8.95879 2.31968 8.93679 2.41602 8.93671 2.51411C8.93844 2.61498 8.96334 2.71341 9.00876 2.799C9.05425 2.88459 9.11852 2.95414 9.19489 3.0003C9.27126 3.04645 9.35683 3.06748 9.44255 3.06116C9.52827 3.05484 9.61093 3.02142 9.68172 2.96442C9.75259 2.90742 9.80901 2.82897 9.84499 2.73737C9.88098 2.64578 9.89528 2.54445 9.88624 2.44413C9.87721 2.3438 9.84531 2.2482 9.79376 2.16746C9.7423 2.08673 9.67316 2.02385 9.59372 1.98549Z" fill="#8E8E92"/>
<path d="M12.4149 1.98829V0.220627C12.4073 0.161725 12.382 0.10797 12.3436 0.0691222C12.3051 0.0302746 12.2561 0.00891113 12.2054 0.00891113C12.1547 0.00891113 12.1056 0.0302746 12.0672 0.0691222C12.0288 0.10797 12.0034 0.161725 11.9959 0.220627V2.02465C11.9032 2.08858 11.8315 2.18753 11.7928 2.30536C11.754 2.42319 11.7503 2.55297 11.7823 2.67358C11.8143 2.7942 11.8801 2.89853 11.969 2.9696C12.058 3.04066 12.1647 3.07428 12.2719 3.06497C12.3792 3.05566 12.4806 3.00398 12.5596 2.91835C12.6387 2.8327 12.6908 2.71814 12.7074 2.59331C12.7239 2.46849 12.7041 2.34075 12.6509 2.23089C12.5978 2.12103 12.5146 2.03553 12.4149 1.98829Z" fill="#8E8E92"/>
<path d="M15.3218 2.00157V0.21993C15.3163 0.159534 15.2919 0.103662 15.2535 0.0630608C15.2151 0.0224605 15.1652 0 15.1135 0C15.0618 0 15.0119 0.0224605 14.9734 0.0630608C14.9349 0.103662 14.9107 0.159534 14.9051 0.21993V2.00717C14.8083 2.06253 14.7303 2.15482 14.6838 2.269C14.6374 2.38316 14.6253 2.51245 14.6494 2.63575C14.6736 2.75906 14.7327 2.86909 14.8169 2.94787C14.9012 3.02667 15.0057 3.06957 15.1135 3.06957C15.2212 3.06957 15.3257 3.02667 15.4099 2.94787C15.4942 2.86909 15.5532 2.75906 15.5774 2.63575C15.6016 2.51245 15.5895 2.38316 15.5431 2.269C15.4967 2.15482 15.4186 2.06253 15.3218 2.00717V2.00157Z" fill="#8E8E92"/>
<path d="M17.7144 0.776509H15.7431V1.3359C16.1431 1.56245 16.2312 2.13022 16.2193 2.51061C16.2263 2.68703 16.2027 2.86329 16.15 3.0287C16.0973 3.19413 16.0166 3.34528 15.9128 3.47301C15.809 3.60076 15.6842 3.70244 15.546 3.77192C15.4078 3.84139 15.259 3.8772 15.1087 3.8772C14.9583 3.8772 14.8096 3.84139 14.6714 3.77192C14.5331 3.70244 14.4083 3.60076 14.3046 3.47301C14.2008 3.34528 14.1201 3.19413 14.0673 3.0287C14.0147 2.86329 13.9911 2.68703 13.998 2.51061C13.9862 2.12463 14.16 1.53168 14.4266 1.35548V0.773712H12.8768V1.3331C13.3029 1.65754 13.3529 1.99317 13.3529 2.52459C13.3529 2.87052 13.2361 3.20233 13.0281 3.44721C12.8201 3.69208 12.538 3.83002 12.2435 3.83076C11.9481 3.8264 11.6659 3.68641 11.4572 3.44074C11.2486 3.19508 11.13 2.86324 11.127 2.5162C11.1153 2.30066 11.148 2.085 11.2222 1.88739C11.2964 1.68978 11.4098 1.51598 11.5531 1.38065V0.773712H10.0485V1.3331C10.2023 1.46882 10.3234 1.64931 10.3999 1.85677C10.4762 2.06424 10.5053 2.29152 10.4841 2.5162C10.4911 2.69263 10.4675 2.86888 10.4149 3.0343C10.3622 3.19972 10.2815 3.35087 10.1777 3.47861C10.0739 3.60635 9.9491 3.70804 9.81082 3.77751C9.67261 3.84698 9.52388 3.8828 9.37349 3.8828C9.22318 3.8828 9.07445 3.84698 8.93624 3.77751C8.79795 3.70804 8.67318 3.60635 8.56939 3.47861C8.4656 3.35087 8.3849 3.19972 8.33218 3.0343C8.27954 2.86888 8.25597 2.69263 8.26288 2.5162C8.25055 2.29292 8.28795 2.06971 8.37147 1.86861C8.45499 1.6675 8.58165 1.49546 8.7391 1.36946V0.773712H7.19159V1.34988C7.34755 1.47904 7.4701 1.65631 7.54571 1.86212C7.62134 2.06792 7.64709 2.29428 7.62013 2.5162C7.62708 2.69263 7.60351 2.86888 7.55083 3.0343C7.49816 3.19972 7.41747 3.35087 7.31366 3.47861C7.20985 3.60635 7.08506 3.70804 6.94684 3.77751C6.80863 3.84698 6.65985 3.8828 6.50952 3.8828C6.35918 3.8828 6.21042 3.84698 6.07219 3.77751C5.93398 3.70804 5.80919 3.60635 5.70538 3.47861C5.60157 3.35087 5.52088 3.19972 5.46821 3.0343C5.41553 2.86888 5.39195 2.69263 5.39892 2.5162C5.39892 2.10505 5.50605 1.56804 5.87506 1.35268V0.776509H4.14427C4.01073 0.768405 3.87725 0.79343 3.75248 0.849956C3.62773 0.90648 3.5145 0.993242 3.42017 1.10458C3.32585 1.21593 3.25254 1.34936 3.20502 1.49619C3.1575 1.64302 3.13684 1.79997 3.14436 1.95681V15.2926C3.14436 15.9946 3.54671 16.8085 4.14427 16.8085H16.286V13.785H18.8571V1.95681C18.8571 1.25479 18.3119 0.776509 17.7144 0.776509ZM7.57966 13.785H5.64651V11.4664H7.57966V13.785ZM7.57966 10.6077H5.64651V8.30026H7.57966V10.6077ZM7.57966 7.50873H5.65365V5.23761H7.5868L7.57966 7.50873ZM8.35104 5.23761H10.2866V7.50873H8.35811L8.35104 5.23761ZM8.35104 8.33942H10.2866V10.6077H8.35811L8.35104 8.33942ZM10.2913 13.785H8.3677V11.4664H10.2984L10.2913 13.785ZM13.0434 13.785H11.0555V11.4664H13.0506L13.0434 13.785ZM13.0434 10.6077H11.0531V8.33942H13.0577L13.0434 10.6077ZM13.0434 7.50873H11.0436V5.2516H13.0434V7.50873ZM15.836 13.785L13.8195 13.8074V11.4664H15.836V13.785ZM15.8193 10.6077H13.8195V8.32264L15.8145 8.30026L15.8193 10.6077ZM15.8193 7.50873H13.8195V5.27118L15.8217 5.24601L15.8193 7.50873Z" fill="#8E8E92"/>
</g>
</g>
<defs>
<filter id="filter0_d" x="-0.857147" y="0" width="23.7143" height="24.8085" color-interpolation-filters="sRGB">
<feFlood flood-opacity="0" result="BackgroundImageFix"/>
<feColorMatrix in="SourceAlpha" values="0 0 0 0 0 0 0 0 0 0 0 0 0 0 0 0 0 0 127 0"/>
<feOffset dy="4"/>
<feGaussianBlur stdDeviation="2"/>
<feColorMatrix values="0 0 0 0 0 0 0 0 0 0 0 0 0 0 0 0 0 0 0.25 0"/>
<feBlend in2="BackgroundImageFix" result="effect1_dropShadow"/>
<feBlend in="SourceGraphic" in2="effect1_dropShadow" result="shape"/>
</filter>
<clipPath id="clip0">
<rect width="22" height="24" fill="white"/>
</clipPath>
</defs>
</svg>
