<svg width="26" height="24" viewBox="0 0 26 24" fill="none" xmlns="http://www.w3.org/2000/svg">
<g clip-path="url(#clip0)">
<g filter="url(#filter0_d)">
<g opacity="0.1">
<g opacity="0.1">
<path opacity="0.1" d="M20.9801 5.21407H8.97656C8.80066 5.20536 8.62469 5.23016 8.45902 5.28703C8.29334 5.34388 8.14131 5.43165 8.01187 5.54517C7.88243 5.65868 7.7782 5.79564 7.70531 5.94799C7.63242 6.10034 7.59234 6.26501 7.58743 6.43229V13.6598C7.58897 13.8311 7.62622 14.0004 7.69702 14.158C7.76781 14.3156 7.87076 14.4583 7.99992 14.5778C8.12908 14.6974 8.28188 14.7914 8.4495 14.8546C8.61714 14.9177 8.79627 14.9487 8.97656 14.9457H17.16L21.274 17.3934L20.1164 14.9457H20.9801C21.3464 14.9527 21.701 14.8238 21.9688 14.5863C22.2365 14.3488 22.3961 14.0215 22.4138 13.6739V6.43229C22.3931 6.09035 22.2306 5.77012 21.9619 5.54178C21.6932 5.31344 21.3402 5.1956 20.9801 5.21407Z" fill="#8E8E92"/>
<path opacity="0.1" d="M18.4096 4.65011V2.90174C18.4048 2.73506 18.3647 2.57101 18.2919 2.41929C18.2191 2.26758 18.115 2.13128 17.9857 2.01847C17.8564 1.90567 17.7047 1.81865 17.5394 1.76258C17.3741 1.7065 17.1986 1.68249 17.0235 1.69199H5.01988C4.84206 1.68169 4.66385 1.70483 4.49548 1.76011C4.3271 1.81538 4.17186 1.90168 4.03867 2.01408C3.90547 2.12647 3.79694 2.26274 3.7193 2.41506C3.64165 2.56739 3.59643 2.73278 3.58621 2.90174V10.1264C3.60239 10.4755 3.76121 10.8048 4.02892 11.0444C4.29663 11.284 4.65213 11.415 5.01988 11.4095H6.85128V6.33362C6.85128 5.38893 7.77144 4.66421 8.97951 4.66421L18.4096 4.65011Z" fill="#8E8E92"/>
</g>
</g>
<path d="M20.9801 4.36808H8.97656C8.80066 4.35937 8.62469 4.38417 8.45902 4.44103C8.29334 4.49789 8.14131 4.58566 8.01187 4.69917C7.88243 4.81268 7.7782 4.94964 7.70531 5.10199C7.63242 5.25434 7.59234 5.41901 7.58743 5.5863V12.8138C7.58897 12.9852 7.62622 13.1545 7.69702 13.312C7.76781 13.4695 7.87076 13.6122 7.99992 13.7318C8.12908 13.8514 8.28188 13.9454 8.4495 14.0086C8.61714 14.0717 8.79627 14.1026 8.97656 14.0997H17.16L21.274 16.5474L20.1164 14.0997H20.9801C21.3464 14.1067 21.701 13.9778 21.9688 13.7402C22.2365 13.5028 22.3961 13.1755 22.4138 12.8279V5.5863C22.3931 5.24435 22.2306 4.92413 21.9619 4.69579C21.6932 4.46745 21.3402 4.3496 20.9801 4.36808Z" fill="white"/>
<path d="M18.4096 3.8041V2.05574C18.4048 1.88906 18.3647 1.725 18.2919 1.57329C18.2191 1.42157 18.115 1.28527 17.9857 1.17247C17.8564 1.05966 17.7047 0.972652 17.5394 0.916567C17.3741 0.86049 17.1986 0.836481 17.0235 0.845982H5.01988C4.84206 0.835679 4.66385 0.858834 4.49548 0.914101C4.3271 0.969375 4.17186 1.05568 4.03867 1.16807C3.90547 1.28046 3.79694 1.41673 3.7193 1.56905C3.64165 1.72138 3.59643 1.88677 3.58621 2.05574V9.28047C3.60239 9.62954 3.76121 9.95884 4.02892 10.1984C4.29663 10.438 4.65213 10.569 5.01988 10.5635H6.85128V5.48761C6.85128 4.54293 7.77144 3.8182 8.97951 3.8182L18.4096 3.8041Z" fill="white"/>
<path d="M20.9801 3.5221H8.97656C8.80066 3.51339 8.62469 3.53819 8.45902 3.59505C8.29334 3.65191 8.14131 3.73968 8.01187 3.85319C7.88243 3.9667 7.7782 4.10367 7.70531 4.25602C7.63242 4.40837 7.59234 4.57303 7.58743 4.74032V11.9678C7.58897 12.1391 7.62622 12.3084 7.69702 12.466C7.76781 12.6236 7.87076 12.7663 7.99992 12.8858C8.12908 13.0053 8.28188 13.0994 8.4495 13.1626C8.61714 13.2257 8.79627 13.2567 8.97656 13.2537H17.16L21.274 15.7015L20.1164 13.2537H20.9801C21.3464 13.2607 21.701 13.1318 21.9688 12.8943C22.2365 12.6569 22.3961 12.3295 22.4138 11.982V4.74032C22.3931 4.39837 22.2306 4.07815 21.9619 3.84981C21.6932 3.62147 21.3402 3.50363 20.9801 3.5221Z" fill="#8E8E92"/>
<path d="M18.4096 2.95718V1.20881C18.4048 1.04214 18.3647 0.878083 18.2919 0.726363C18.2191 0.574645 18.115 0.438351 17.9857 0.325548C17.8564 0.212744 17.7047 0.125726 17.5394 0.0696454C17.3741 0.0135646 17.1986 -0.0104385 17.0235 -0.000942945H5.01988C4.84206 -0.0112427 4.66385 0.0119072 4.49548 0.0671791C4.3271 0.122451 4.17186 0.208758 4.03867 0.321149C3.90547 0.433541 3.79694 0.569806 3.7193 0.722132C3.64165 0.874458 3.59643 1.03984 3.58621 1.20881V8.43352C3.60239 8.7826 3.76121 9.1119 4.02892 9.35148C4.29663 9.59107 4.65213 9.72208 5.01988 9.71661H6.85128V4.64069C6.85128 3.69601 7.77144 2.97128 8.97951 2.97128L18.4096 2.95718Z" fill="#8E8E92"/>
</g>
</g>
<defs>
<filter id="filter0_d" x="-0.413788" y="-0.00332642" width="26.8276" height="25.3967" color-interpolation-filters="sRGB">
<feFlood flood-opacity="0" result="BackgroundImageFix"/>
<feColorMatrix in="SourceAlpha" values="0 0 0 0 0 0 0 0 0 0 0 0 0 0 0 0 0 0 127 0"/>
<feOffset dy="4"/>
<feGaussianBlur stdDeviation="2"/>
<feColorMatrix values="0 0 0 0 0 0 0 0 0 0 0 0 0 0 0 0 0 0 0.25 0"/>
<feBlend in2="BackgroundImageFix" result="effect1_dropShadow"/>
<feBlend in="SourceGraphic" in2="effect1_dropShadow" result="shape"/>
</filter>
<clipPath id="clip0">
<rect width="26" height="24" fill="white"/>
</clipPath>
</defs>
</svg>
