<svg width="24" height="22" viewBox="0 0 24 22" fill="none" xmlns="http://www.w3.org/2000/svg">
<g clip-path="url(#clip0)">
<path d="M11.4375 7.08127C11.625 7.08127 11.8125 7.08127 12 7.08127C12.1875 7.08127 12.3375 7.08127 12.4875 7.08127C18.075 7.28752 22.5 11.5156 22.5 16.6719H1.5C1.5 11.55 5.8875 7.35627 11.4375 7.08127Z" fill="#F4F4F4"/>
<path d="M22.8375 18.1156H1.125L0.375 16.6719H1.5H22.5H23.625L22.8375 18.1156Z" fill="#686868"/>
<path d="M11.925 3.91876C12.5625 3.91876 13.0875 4.40001 13.0875 4.98439C13.0875 5.39689 12.8625 5.74064 12.4875 5.91251C12.3 6.01564 12.1125 6.05001 11.925 6.05001C11.7375 6.05001 11.5875 6.01564 11.4375 5.94689C11.025 5.77501 10.7625 5.39689 10.7625 4.98439C10.7625 4.40001 11.2875 3.91876 11.925 3.91876Z" fill="#F4F4F4"/>
<path d="M12.4875 7.04691C12.3375 7.04691 12.15 7.04691 12 7.04691C11.8125 7.04691 11.625 7.04691 11.4375 7.04691V5.94691C11.5875 6.01566 11.775 6.05004 11.925 6.05004C12.15 6.05004 12.3375 6.01566 12.4875 5.91254V7.04691Z" fill="#686868"/>
<path d="M22.5 17.0156C22.275 17.0156 22.125 16.8781 22.125 16.6719C22.125 11.7219 17.8875 7.63126 12.4875 7.39064C12.15 7.35626 11.8125 7.35626 11.475 7.39064C6.075 7.66564 1.875 11.7563 1.875 16.6719C1.875 16.8781 1.725 17.0156 1.5 17.0156C1.275 17.0156 1.125 16.8781 1.125 16.6719C1.125 11.3781 5.625 7.01251 11.4 6.73751C11.775 6.70314 12.15 6.70314 12.525 6.73751C18.3375 6.97814 22.875 11.3438 22.875 16.6719C22.875 16.8781 22.725 17.0156 22.5 17.0156Z" fill="#686868"/>
<path d="M22.8375 18.4594H1.12501C0.97501 18.4594 0.86251 18.3906 0.78751 18.2531L0.0375105 16.8438C1.04532e-05 16.7063 1.04532e-05 16.6031 0.0750105 16.5C0.15001 16.3969 0.26251 16.3281 0.37501 16.3281H23.625C23.7375 16.3281 23.8875 16.3969 23.9625 16.5C24.0375 16.6031 24.0375 16.7406 23.9625 16.8438L23.175 18.2531C23.1 18.3562 22.9875 18.4594 22.8375 18.4594ZM1.35001 17.7719H22.575L22.9875 17.05H0.97501L1.35001 17.7719Z" fill="#686868"/>
<path d="M19.6875 14.4375C19.5375 14.4375 19.3875 14.3344 19.3125 14.1969C18.5625 12.1344 16.8 10.5531 14.5125 9.9344C14.325 9.86565 14.2125 9.69378 14.25 9.5219C14.325 9.35003 14.5125 9.2469 14.7 9.28128C17.2125 9.9344 19.2 11.6875 19.9875 13.9906C20.0625 14.1625 19.95 14.3688 19.7625 14.4375C19.7625 14.4375 19.725 14.4375 19.6875 14.4375Z" fill="#686868"/>
<path d="M23.25 5.01877H18.1875C17.9625 5.01877 17.8125 4.88127 17.8125 4.67502C17.8125 4.46877 17.9625 4.33127 18.1875 4.33127H23.25C23.475 4.33127 23.625 4.46877 23.625 4.67502C23.625 4.88127 23.475 5.01877 23.25 5.01877Z" fill="#686868"/>
<path d="M23.25 7.08127H19.5C19.275 7.08127 19.125 6.94377 19.125 6.73752C19.125 6.53127 19.275 6.39377 19.5 6.39377H23.25C23.475 6.39377 23.625 6.53127 23.625 6.73752C23.625 6.94377 23.475 7.08127 23.25 7.08127Z" fill="#686868"/>
<path d="M23.25 9.14377H21.4875C21.2625 9.14377 21.1125 9.00627 21.1125 8.80002C21.1125 8.59377 21.2625 8.45627 21.4875 8.45627H23.25C23.475 8.45627 23.625 8.59377 23.625 8.80002C23.625 9.00627 23.475 9.14377 23.25 9.14377Z" fill="#686868"/>
<path d="M11.925 6.39376C11.7 6.39376 11.475 6.35939 11.2875 6.25626C10.725 6.01564 10.3875 5.53439 10.3875 4.98439C10.3875 4.19376 11.0625 3.57501 11.925 3.57501C12.7875 3.57501 13.4625 4.22814 13.4625 4.98439C13.4625 5.50001 13.1625 5.94689 12.675 6.22189C12.45 6.32501 12.1875 6.39376 11.925 6.39376ZM11.925 4.22814C11.475 4.22814 11.1375 4.57189 11.1375 4.95001C11.1375 5.22501 11.325 5.50001 11.5875 5.60314C11.8125 5.70626 12.1125 5.67189 12.3 5.56876C12.5625 5.43126 12.7125 5.19064 12.7125 4.95001C12.7125 4.57189 12.375 4.22814 11.925 4.22814Z" fill="#686868"/>
<path d="M11.4375 7.42501C11.2125 7.42501 11.0625 7.28751 11.0625 7.08126V5.98126C11.0625 5.77501 11.2125 5.63751 11.4375 5.63751C11.6625 5.63751 11.8125 5.77501 11.8125 5.98126V7.08126C11.8125 7.25314 11.625 7.42501 11.4375 7.42501Z" fill="#686868"/>
<path d="M12.4875 7.39066C12.2625 7.39066 12.1125 7.25316 12.1125 7.04691V5.91254C12.1125 5.70629 12.2625 5.56879 12.4875 5.56879C12.7125 5.56879 12.8625 5.70629 12.8625 5.91254V7.04691C12.8625 7.25316 12.7125 7.39066 12.4875 7.39066Z" fill="#686868"/>
<path d="M13.125 9.65938H13.0875C12.7875 9.625 12.4875 9.625 12.1875 9.625C11.9625 9.625 11.8125 9.4875 11.8125 9.28125C11.8125 9.075 11.9625 8.9375 12.1875 8.9375C12.525 8.9375 12.825 8.9375 13.1625 8.97188C13.35 9.00625 13.5 9.17813 13.5 9.35C13.4625 9.55625 13.3125 9.65938 13.125 9.65938Z" fill="#686868"/>
</g>
<defs>
<clipPath id="clip0">
<rect width="24" height="22" fill="white"/>
</clipPath>
</defs>
</svg>
