<svg width="20" height="17" viewBox="0 0 20 17" fill="none" xmlns="http://www.w3.org/2000/svg">
<path d="M18.3943 14.1334H17.5888V4.98167C17.5953 4.74814 17.5092 4.52151 17.3492 4.35128C17.1891 4.18106 16.9683 4.08107 16.7348 4.07316H14.1304C14.0182 4.07836 13.9082 4.10636 13.8072 4.15546C13.7062 4.20456 13.6162 4.27373 13.5428 4.35875C13.4694 4.44377 13.4141 4.54285 13.3803 4.64995C13.3465 4.75705 13.3348 4.86992 13.346 4.98167V14.1334H11.7743C11.7743 13.9608 11.7743 13.8881 11.7743 13.773V1.15381C11.7773 0.478483 11.3958 0 10.9203 0H8.31591C7.84045 0 7.38014 0.478483 7.38014 1.15381L7.365 14.088V14.1364H6.12337V8.13723C6.12337 7.80411 5.72968 7.53156 5.25422 7.53156H2.64982C2.17437 7.53156 1.74131 7.79806 1.74131 8.13723V14.1334H0.542078C0.239241 14.1334 0 14.2333 0 14.4029V15.8747C0 16.0443 0.24227 16.1776 0.542078 16.1776H18.4095C18.7123 16.1776 19.0151 16.0473 19.0151 15.8747V14.4029C19 14.2333 18.6941 14.1334 18.3943 14.1334Z" fill="#686868"/>
<path d="M5 8H4V14H5V8Z" fill="white"/>
<path d="M11 1H10V14H11V1Z" fill="white"/>
<path d="M17 5H16V14H17V5Z" fill="white"/>
</svg>
