<svg width="25" height="21" viewBox="0 0 25 21" fill="none" xmlns="http://www.w3.org/2000/svg">
<g clip-path="url(#clip0)">
<path d="M6.51307 7.53563H13.3175C13.777 7.53563 14.1174 7.78484 14.2193 8.19891C14.2368 8.28341 14.2442 8.36967 14.2414 8.45591C14.2429 9.81341 14.2429 11.1707 14.2414 12.5278C14.2414 13.1031 13.8844 13.4539 13.3081 13.4539H6.51307V13.6616C6.51307 14.5105 6.51307 15.3595 6.51307 16.2086C6.51307 16.6233 6.30669 16.9591 5.95883 17.0782C5.60188 17.2003 5.2816 17.1321 5.00739 16.8569C3.80068 15.6468 2.59246 14.4382 1.38272 13.2313C0.690453 12.539 -0.00311273 11.8485 -0.697977 11.1597C-0.980941 10.878 -1.08056 10.5499 -0.930319 10.1712C-0.884747 10.0618 -0.817905 9.96255 -0.733672 9.87917C1.17915 7.96116 3.0937 6.04476 5.00999 4.12999C5.28387 3.85579 5.60739 3.79024 5.96272 3.91744C6.30637 4.0401 6.50983 4.36233 6.51113 4.75757C6.51405 5.61718 6.51113 6.47743 6.51113 7.33671L6.51307 7.53563Z" fill="#8E8E92"/>
<path d="M22.1422 19.2712C22.1471 19.1946 22.1555 19.1258 22.1555 19.057C22.1555 13.351 22.1555 7.64521 22.1555 1.93963C22.1555 1.71442 22.1555 1.71248 21.9362 1.71248H9.21582C8.99776 1.71248 8.99711 1.71248 8.99679 1.93963C8.99679 3.04844 8.99841 4.15726 8.99679 5.26575C8.99679 5.66197 8.75017 5.98679 8.3864 6.08836C7.9996 6.19642 7.60112 6.05104 7.40901 5.70415C7.33276 5.56824 7.29025 5.416 7.28505 5.26024C7.27629 3.78928 7.27824 2.31799 7.28051 0.847034C7.27926 0.735874 7.30015 0.625578 7.34197 0.522576C7.38378 0.419573 7.44568 0.325926 7.52406 0.247093C7.60244 0.16826 7.69573 0.10582 7.79849 0.063412C7.90125 0.0210043 8.01142 -0.000522081 8.12259 8.79499e-05C13.093 8.79499e-05 18.0633 8.79499e-05 23.0333 8.79499e-05C23.1446 -0.00152992 23.255 0.019188 23.3581 0.061015C23.4612 0.102842 23.5548 0.164928 23.6335 0.243598C23.7122 0.322267 23.7743 0.415921 23.8161 0.519014C23.8579 0.622108 23.8786 0.732545 23.877 0.843789C23.877 7.27409 23.877 13.7046 23.877 20.1353C23.877 20.5971 23.5509 20.9508 23.0943 20.9888C23.0135 20.9956 22.9321 20.9988 22.8516 20.9988C18.0003 20.9988 13.1491 20.9974 8.29782 20.9946C8.10896 20.9946 7.90387 20.9654 7.73481 20.8875C7.43724 20.7506 7.28408 20.4825 7.28278 20.1551C7.27716 18.6735 7.27716 17.1916 7.28278 15.7095C7.28278 15.2393 7.68159 14.8625 8.15309 14.8658C8.62459 14.869 8.99679 15.2399 8.99679 15.7293C9.00036 16.827 8.99679 17.9252 8.99679 19.0229C8.99679 19.1028 9.0049 19.1823 9.00944 19.2696L22.1422 19.2712Z" fill="#686868"/>
</g>
<defs>
<clipPath id="clip0">
<rect width="25" height="21" fill="white"/>
</clipPath>
</defs>
</svg>
