<svg width="17" height="21" viewBox="0 0 17 21" fill="none" xmlns="http://www.w3.org/2000/svg">
<path d="M8.73212 7.697C7.32081 7.697 6.10207 6.91889 5.68192 5.71575C5.67673 5.70271 5.67283 5.68935 5.67024 5.67579C5.64788 5.51651 5.54043 5.42345 5.36989 5.33669C4.7672 5.02824 4.44516 4.30297 4.64171 3.74929C4.71234 3.53074 4.88528 3.34387 5.12294 3.22928C5.16999 3.20656 5.20603 3.13951 5.20938 3.09243C5.2384 2.66821 5.28113 2.24564 5.45199 1.84112C5.69994 1.25351 6.1321 0.811226 6.903 0.648928C6.92373 0.642498 6.94519 0.637821 6.96708 0.63497C7.2771 0.624296 7.52005 0.567642 7.68757 0.299152C7.83141 0.0714416 8.17314 0.0183457 8.47648 0.00466122C9.93051 -0.0602033 11.8804 0.550399 12.3503 2.3584C12.4091 2.58446 12.4191 2.81874 12.4577 3.04864C12.4661 3.09736 12.4838 3.16414 12.5262 3.18549C12.8306 3.3497 12.9681 3.59301 13.0077 3.87382C13.0712 4.32158 12.955 4.7406 12.6073 5.09502C12.4828 5.22229 12.3039 5.32054 12.1304 5.40539C12.035 5.45164 11.9842 5.49653 11.9559 5.58028C11.7048 6.32991 11.2217 6.94271 10.3874 7.34421C9.89613 7.58451 9.36118 7.7063 8.73212 7.697ZM6.01731 3.1937C6.01731 3.2665 6.01564 3.33958 6.01731 3.41265C6.02332 3.64036 5.90885 3.76407 5.6332 3.79855C5.48336 3.81716 5.41695 3.88422 5.40727 3.99616C5.39557 4.07747 5.39884 4.15977 5.41695 4.24029C5.49371 4.50495 5.61551 4.7603 5.97159 4.83748C6.21921 4.89222 6.32666 4.99923 6.37706 5.19656C6.43713 5.43139 6.50655 5.67059 6.62702 5.88736C7.26109 7.0281 8.99642 7.39867 10.1935 6.65779C10.8099 6.27682 11.1145 5.7475 11.25 5.141C11.2964 4.93245 11.4189 4.84323 11.6691 4.81887C11.7566 4.81039 11.8641 4.78247 11.9188 4.73156C12.1807 4.48798 12.2775 4.20033 12.1804 3.88312C12.1654 3.83359 12.0763 3.77638 12.0103 3.76434C11.7433 3.7159 11.6432 3.59465 11.6382 3.36859C11.6295 3.06069 11.6255 2.74512 11.5418 2.44762C11.1746 1.14075 9.78633 0.665349 8.66004 0.656591C8.37537 0.654402 8.27792 0.738698 8.24923 0.971608C8.24052 1.05195 8.19537 1.12668 8.12269 1.18101C8.05001 1.23534 7.95512 1.26532 7.85677 1.265C7.75666 1.265 7.65654 1.25789 7.55642 1.25789C6.89433 1.25789 6.47617 1.49217 6.24525 1.99904C6.07037 2.38303 6.03433 2.78727 6.01731 3.1937Z" fill="#8E8E92"/>
<path d="M3.77104 20.3314C3.729 20.0227 3.68728 19.7194 3.64623 19.4165C3.51586 18.452 3.38548 17.4874 3.25512 16.5227C3.16033 15.8166 3.06756 15.1098 2.97679 14.4024C2.93941 14.1077 2.80392 13.9996 2.44284 13.999C1.95894 13.999 1.47506 13.999 0.991496 13.999H0.817963V12.7127H16.1894V13.9892C16.135 13.9924 16.0823 13.9982 16.0295 13.9982C15.54 13.9996 15.0508 13.9982 14.5612 14.0009C14.1941 14.0023 14.0696 14.0964 14.0302 14.3896C13.8968 15.3818 13.7633 16.3737 13.6298 17.3654C13.5032 18.3075 13.3775 19.2496 13.2527 20.1918C13.2467 20.2364 13.236 20.281 13.2263 20.3314H3.77104ZM8.51253 17.8682H11.0652C11.4712 17.8682 11.8774 17.8701 12.2833 17.8657C12.5342 17.863 12.6947 17.7272 12.6937 17.5318C12.6937 17.317 12.5155 17.2001 12.1931 17.2001H7.35419C6.49786 17.2001 5.64121 17.1982 4.78455 17.2001C4.47919 17.2001 4.30266 17.3312 4.30366 17.5387C4.30466 17.7461 4.48353 17.8671 4.79023 17.8671C6.03233 17.868 7.27331 17.8687 8.51319 17.8693L8.51253 17.8682ZM8.50252 15.8341C9.75374 15.8341 11.0049 15.8341 12.2559 15.8341C12.5272 15.8341 12.6924 15.7077 12.695 15.5114C12.6981 15.3075 12.5325 15.1797 12.2526 15.1775C11.8357 15.1745 11.4182 15.1753 11.0017 15.1753C8.92245 15.1753 6.84282 15.1753 4.76286 15.1753C4.47452 15.1753 4.30133 15.3053 4.307 15.5136C4.31201 15.7153 4.4852 15.8347 4.7662 15.8347C6.01208 15.8348 7.25774 15.835 8.50318 15.8352L8.50252 15.8341Z" fill="#686868"/>
<path d="M14.1284 12.0361H2.87628C2.89657 11.6603 2.99452 11.2902 3.16595 10.9413C3.77132 9.69586 4.86036 8.88482 6.43307 8.50823C6.52885 8.48524 6.59125 8.49263 6.66934 8.54983C7.22481 8.96194 7.94071 9.19887 8.68938 9.21837C9.43804 9.23787 10.1708 9.03867 10.7571 8.65629C10.8335 8.60676 10.8956 8.58459 10.9953 8.61825C12.7915 9.22584 13.8394 10.3121 14.1186 11.8918C14.1267 11.9356 14.125 11.9813 14.1284 12.0361Z" fill="#8E8E92"/>
</svg>
