<svg width="23" height="21" viewBox="0 0 23 21" fill="none" xmlns="http://www.w3.org/2000/svg">
<path d="M0.958344 9.625V14.875V17.5C0.958344 18.4669 1.81644 19.25 2.87501 19.25H21.0833C22.1423 19.25 23 18.4669 23 17.5V14.875V9.625H0.958344Z" fill="white"/>
<path d="M0 1.75V9.625V15.75V18.375C0 19.3419 0.85812 20.125 1.91667 20.125H20.125C21.184 20.125 22.0417 19.3419 22.0417 18.375V15.75V9.625V1.75H0Z" fill="#BDC3C7"/>
<path d="M1.91666 3.5V7.875H2.87499V5.25L4.79166 7.875H5.74999V3.5H4.79166V6.125L2.87499 3.5H1.91666ZM6.70832 3.5V7.875H10.5417V7H7.66666V6.125H9.58332V5.25H7.66666V4.375H10.5417V3.5H6.70832ZM11.5 3.5V7.875H12.4583L13.4167 6.125L14.375 7.875H15.3333V3.5H14.375V6.125L13.4167 4.375L12.4583 6.125V3.5H11.5ZM17.7292 3.5C16.9357 3.5 16.2917 4.08765 16.2917 4.8125C16.2917 5.53735 16.9357 6.125 17.7292 6.125H18.6875C18.952 6.125 19.1667 6.32091 19.1667 6.5625C19.1667 6.80409 18.952 7 18.6875 7H17.7589H16.2917V7.875H17.7589H18.6875C19.481 7.875 20.125 7.28735 20.125 6.5625C20.125 5.83765 19.481 5.25 18.6875 5.25H18.2083H17.7292C17.4647 5.25 17.25 5.05409 17.25 4.8125C17.25 4.57091 17.4647 4.375 17.7292 4.375H18.2083H18.6875H20.125V3.5H18.6875H17.7292Z" fill="#686868"/>
<path d="M10.5417 9.625H1.91666V15.75H10.5417V9.625Z" fill="white"/>
<path d="M20.125 13.125H11.5V14H20.125V13.125Z" fill="white"/>
<path d="M10.5417 16.625H1.91666V17.5H10.5417V16.625Z" fill="white"/>
<path d="M20.125 14.875H11.5V15.75H20.125V14.875Z" fill="white"/>
<path d="M20.125 11.375H11.5V12.25H20.125V11.375Z" fill="white"/>
<path d="M20.125 9.625H11.5V10.5H20.125V9.625Z" fill="white"/>
<path d="M0 17.5V18.375C0 19.3419 0.85812 20.125 1.91667 20.125H20.125C21.184 20.125 23 19.3419 23 18.375V17.5C23 18.4669 21.184 19.25 20.125 19.25H1.91667C0.858092 19.25 0 18.4669 0 17.5Z" fill="white"/>
<path d="M20.125 16.625H11.5V17.5H20.125V16.625Z" fill="white"/>
</svg>
