<svg width="18" height="21" viewBox="0 0 18 21" fill="none" xmlns="http://www.w3.org/2000/svg">
<g clip-path="url(#clip0)">
<path d="M8.505 19.95C13.2022 19.95 17.01 15.9541 17.01 11.025C17.01 6.09586 13.2022 2.1 8.505 2.1C3.80782 2.1 0 6.09586 0 11.025C0 15.9541 3.80782 19.95 8.505 19.95Z" fill="white"/>
<path d="M17.6137 9.78507C17.6132 7.64374 16.9805 5.56173 15.8123 3.85856C14.6442 2.1554 13.0054 0.925184 11.1474 0.356725C9.28933 -0.211734 7.31474 -0.0870283 5.52662 0.711702C3.73851 1.51043 2.2357 2.93905 1.24882 4.77832C0.261927 6.61758 -0.154499 8.76586 0.063443 10.8934C0.281385 13.021 1.12165 15.0104 2.45529 16.5562C3.78893 18.102 5.54225 19.1188 7.44616 19.4506C9.35008 19.7825 11.2994 19.4109 12.995 18.3931C14.3837 19.2792 16.9979 21.0001 16.9979 21.0001L15.9633 15.4815C17.0383 13.8225 17.6158 11.8294 17.6137 9.78507ZM13.1058 13.8325H4.73966C4.52571 13.8325 4.32051 13.738 4.16922 13.5699C4.01792 13.4018 3.93292 13.1738 3.93292 12.9361C3.93292 12.6984 4.01792 12.4704 4.16922 12.3023C4.32051 12.1341 4.52571 12.0397 4.73966 12.0397H13.1058C13.3198 12.0397 13.525 12.1341 13.6763 12.3023C13.8276 12.4704 13.9125 12.6984 13.9125 12.9361C13.9125 13.1738 13.8276 13.4018 13.6763 13.5699C13.525 13.738 13.3198 13.8325 13.1058 13.8325ZM13.1058 10.572H4.73966C4.52571 10.572 4.32051 10.4775 4.16922 10.3094C4.01792 10.1413 3.93292 9.91332 3.93292 9.67558C3.93292 9.43785 4.01792 9.20985 4.16922 9.04174C4.32051 8.87364 4.52571 8.7792 4.73966 8.7792H13.1058C13.3198 8.7792 13.525 8.87364 13.6763 9.04174C13.8276 9.20985 13.9125 9.43785 13.9125 9.67558C13.9125 9.91332 13.8276 10.1413 13.6763 10.3094C13.525 10.4775 13.3198 10.572 13.1058 10.572ZM13.1058 7.31146H4.73966C4.52571 7.31146 4.32051 7.21702 4.16922 7.04891C4.01792 6.88081 3.93292 6.65281 3.93292 6.41508C3.93292 6.17734 4.01792 5.94934 4.16922 5.78124C4.32051 5.61313 4.52571 5.51869 4.73966 5.51869H13.1058C13.3198 5.51869 13.525 5.61313 13.6763 5.78124C13.8276 5.94934 13.9125 6.17734 13.9125 6.41508C13.9125 6.65281 13.8276 6.88081 13.6763 7.04891C13.525 7.21702 13.3198 7.31146 13.1058 7.31146Z" fill="#8E8E92"/>
</g>
<defs>
<clipPath id="clip0">
<rect width="18" height="21" fill="white"/>
</clipPath>
</defs>
</svg>
