<svg width="24" height="24" viewBox="0 0 24 24" fill="none" xmlns="http://www.w3.org/2000/svg">
<path d="M8.3959 3.75V4.35598V5.60323H1.5V6.20687V20.25H22.5V5.60323H15.5995V3.75H8.3959ZM9.56763 4.96196H14.4346V5.60323V6.71614H9.56763V4.96196ZM2.66717 6.81051H8.3959V7.92809H15.5995V7.92567H15.6019V6.81043H21.3329V19.0429H2.66717V6.81051ZM4.19909 8.7839V9.38054V17.0717H11.4985V8.7839H4.19909ZM5.3617 9.98643H10.3336V14.9921C10.2892 14.8354 10.2339 14.6813 10.1695 14.5323C10.0208 14.1888 9.64389 14.0233 9.35106 13.7754C9.42327 13.6629 9.58998 13.6037 9.62006 13.4901C9.71459 13.1328 9.69735 12.8238 9.69757 12.5446C9.69748 11.4941 8.86836 10.6208 7.85335 10.6206C6.83803 10.6203 6.00009 11.4937 6 12.5446C6.00012 12.8048 5.97004 13.095 6.04332 13.4523C6.06798 13.5728 6.24385 13.6422 6.31915 13.7659C6.02107 14.0193 5.6339 14.1902 5.49165 14.5417C5.43957 14.6704 5.39874 14.8036 5.36171 14.9378L5.3617 9.98643ZM13.3404 10.182C13.1854 10.1826 13.037 10.2467 12.9276 10.3603C12.8182 10.4739 12.7568 10.6277 12.7568 10.788C12.7568 10.9483 12.8182 11.1021 12.9276 11.2157C13.037 11.3293 13.1854 11.3934 13.3404 11.394H19.3723C19.5273 11.3934 19.6758 11.3293 19.7852 11.2157C19.8946 11.1021 19.956 10.9483 19.956 10.788C19.956 10.6277 19.8946 10.4739 19.7852 10.3603C19.6758 10.2467 19.5273 10.1826 19.3723 10.182H13.3404ZM7.84422 11.8301V11.8326C8.22245 11.8326 8.5258 12.1401 8.52584 12.5446C8.5256 12.8471 8.52127 13.0832 8.49848 13.1694C8.47563 13.2556 8.54444 13.1865 8.43921 13.2213C8.31538 13.2582 8.20681 13.3364 8.13046 13.4437C8.0541 13.5511 8.01425 13.6816 8.01711 13.8149C8.01997 13.9481 8.06539 14.0766 8.14627 14.1804C8.22716 14.2841 8.33897 14.3573 8.46427 14.3884C8.75435 14.4624 8.94265 14.6532 9.10257 15.0227C9.19458 15.2353 9.20807 15.5539 9.24846 15.8408H6.43995C6.4763 15.5495 6.48376 15.2259 6.56989 15.0132C6.719 14.645 6.88424 14.462 7.17172 14.3884C7.29735 14.3584 7.40985 14.2862 7.49164 14.1831C7.57343 14.08 7.6199 13.9518 7.62381 13.8185C7.62771 13.6852 7.58883 13.5543 7.51323 13.4463C7.43763 13.3382 7.32956 13.2592 7.20591 13.2213C7.10617 13.1893 7.19843 13.2888 7.18086 13.2043C7.1632 13.1181 7.17187 12.8674 7.17176 12.5465C7.17179 12.1418 7.46591 11.832 7.84425 11.832L7.84422 11.8301ZM19.4362 12.4526C19.4149 12.4522 19.3936 12.4531 19.3723 12.4551H13.3404C13.3237 12.4543 13.307 12.4543 13.2903 12.4551C13.1445 12.4735 13.0109 12.5481 12.9159 12.664C12.821 12.7799 12.7718 12.9285 12.7782 13.0802C12.7845 13.232 12.8459 13.3756 12.9501 13.4826C13.0543 13.5896 13.1937 13.6521 13.3404 13.6575H19.3723C19.4504 13.6647 19.529 13.6556 19.6035 13.6307C19.6781 13.6058 19.747 13.5656 19.8062 13.5126C19.8654 13.4596 19.9137 13.3948 19.9482 13.322C19.9827 13.2493 20.0027 13.1701 20.007 13.0892C20.0113 13.0084 19.9998 12.9274 19.9731 12.8512C19.9465 12.775 19.9054 12.7051 19.8521 12.6457C19.7989 12.5863 19.7346 12.5386 19.6631 12.5054C19.5917 12.4722 19.5145 12.4543 19.4362 12.4526ZM13.3404 14.7185C13.2633 14.7182 13.1868 14.7335 13.1155 14.7638C13.0441 14.7941 12.9792 14.8388 12.9245 14.8951C12.8699 14.9514 12.8265 15.0183 12.7969 15.092C12.7673 15.1656 12.7521 15.2447 12.7521 15.3245C12.7521 15.4043 12.7673 15.4832 12.7969 15.5569C12.8265 15.6306 12.8699 15.6975 12.9245 15.7538C12.9792 15.8101 13.0441 15.8547 13.1155 15.885C13.1868 15.9153 13.2633 15.9307 13.3404 15.9304H19.3723C19.4495 15.9307 19.5259 15.9153 19.5973 15.885C19.6687 15.8547 19.7336 15.8101 19.7882 15.7538C19.8429 15.6975 19.8863 15.6306 19.9159 15.5569C19.9455 15.4832 19.9607 15.4043 19.9607 15.3245C19.9607 15.2447 19.9455 15.1656 19.9159 15.092C19.8863 15.0183 19.8429 14.9514 19.7882 14.8951C19.7336 14.8388 19.6687 14.7941 19.5973 14.7638C19.5259 14.7335 19.4495 14.7182 19.3723 14.7185H13.3404Z" fill="#686868"/>
</svg>
