<svg width="33" height="26" viewBox="0 0 33 26" fill="none" xmlns="http://www.w3.org/2000/svg">
<path d="M3.72718 3.66284L4.94244 4.93566C1.55345 9.0608 1.00266 13.4448 3.44493 18.1868L1.89254 19.0927C-1.02015 14.8913 -0.692814 7.86066 3.72718 3.66284Z" fill="#B00D23"/>
<path d="M7.23773 16.2563L5.73435 17.1285C3.48025 13.911 3.91147 8.60874 6.83984 5.62878L8.04333 6.89629C6.98237 8.24148 6.34368 9.82128 6.19497 11.4682C6.04208 13.1345 6.43606 14.714 7.23773 16.2563Z" fill="#B00D23"/>
<path d="M19.7332 22.7144C16.3051 22.7959 12.8729 22.7268 9.50552 22.0673C8.90704 21.96 8.327 21.7811 7.78064 21.5355C7.48075 21.3937 7.11421 21.0143 7.13381 20.7644C7.15733 20.4719 7.50819 20.1067 7.82376 19.9489C8.32947 19.699 8.94101 19.6298 9.47219 19.4171C9.81913 19.2753 10.2268 19.0714 10.3974 18.7913C11.8067 16.462 12.479 13.934 12.7024 11.3033C12.8141 10.0021 12.771 8.67967 13.0043 7.4033C13.4629 4.88426 15.0075 3.08139 17.685 2.12234C17.7996 2.06178 17.8983 1.97933 17.9741 1.88075C18.05 1.78217 18.1011 1.66982 18.124 1.55153C18.2965 0.619071 18.8845 0.0181156 19.7254 0.000388334C20.6114 -0.017339 21.219 0.57298 21.4111 1.54266C21.444 1.66681 21.5057 1.78319 21.5923 1.88406C21.6788 1.98493 21.7881 2.06798 21.9129 2.12766C24.9432 3.28348 26.4701 5.40721 26.6524 8.30385C26.8268 11.0711 26.9346 13.8365 27.9989 16.4797C28.1244 16.7899 28.2655 17.0984 28.3909 17.4121C28.8359 18.5875 29.4572 19.5394 31.041 19.6954C31.6525 19.7539 32.4385 19.995 32.4307 20.759C32.4228 21.5231 31.6467 21.7128 31.0253 21.8227C28.8869 22.1666 26.7406 22.5176 24.5805 22.709C22.9752 22.8243 21.3484 22.7144 19.7332 22.7144ZM20.6133 1.80857C20.5251 1.22889 20.3389 0.775071 19.6999 0.828253C19.1472 0.876116 18.9159 1.27144 18.9963 1.80857L20.6133 1.80857Z" fill="#B00D23"/>
<path d="M17.7694 23.3295H21.8169C21.962 24.5403 21.0956 25.5224 19.8902 25.5614C18.6102 25.6039 17.6851 24.652 17.7694 23.3295Z" fill="#B00D23"/>
</svg>