<svg width="136" height="123" viewBox="0 0 136 123" fill="none" xmlns="http://www.w3.org/2000/svg">
<path d="M121.33 107.113H119.372V120.135V123.267L135.959 107.113H134.558H121.33Z" fill="white"/>
<path d="M31.2284 14.8481V1.62024C31.1628 1.18632 30.9438 0.790325 30.6111 0.504148C30.2784 0.21797 29.8541 0.0605927 29.4153 0.0605927C28.9764 0.0605927 28.5522 0.21797 28.2195 0.504148C27.8868 0.790325 27.6677 1.18632 27.6021 1.62024V14.7038C26.8508 15.022 26.2108 15.5561 25.7633 16.2383C25.3158 16.9206 25.081 17.7203 25.0884 18.5362C25.0884 19.6455 25.5291 20.7094 26.3135 21.4937C27.0979 22.2781 28.1618 22.7188 29.2711 22.7188C30.3804 22.7188 31.4442 22.2781 32.2286 21.4937C33.013 20.7094 33.4537 19.6455 33.4537 18.5362C33.4591 17.776 33.254 17.0291 32.8613 16.3782C32.4686 15.7273 31.9035 15.1977 31.2284 14.8481Z" fill="white"/>
<path d="M55.8297 14.6214V1.62024C55.7641 1.18632 55.545 0.790325 55.2123 0.504148C54.8796 0.21797 54.4554 0.0605927 54.0165 0.0605927C53.5777 0.0605927 53.1534 0.21797 52.8207 0.504148C52.488 0.790325 52.269 1.18632 52.2034 1.62024V14.9511C51.5775 15.3124 51.0577 15.8319 50.6961 16.4576C50.3344 17.0832 50.1437 17.7929 50.1429 18.5156C50.1579 19.2586 50.3735 19.9838 50.7669 20.6143C51.1604 21.2448 51.717 21.7572 52.3778 22.0971C53.0387 22.4371 53.7792 22.592 54.5209 22.5455C55.2627 22.499 55.978 22.2527 56.5912 21.8328C57.2044 21.4129 57.6926 20.835 58.0042 20.1602C58.3157 19.4855 58.439 18.7391 58.361 18C58.2829 17.2609 58.0064 16.5567 57.5608 15.9619C57.1152 15.3672 56.517 14.904 55.8297 14.6214Z" fill="white"/>
<path d="M80.2453 14.642V1.62024C80.1797 1.18632 79.9607 0.790325 79.628 0.504148C79.2953 0.21797 78.871 0.0605927 78.4321 0.0605927C77.9933 0.0605927 77.569 0.21797 77.2363 0.504148C76.9036 0.790325 76.6846 1.18632 76.619 1.62024V14.9099C75.8163 15.3809 75.1967 16.1097 74.8611 16.9778C74.5254 17.8458 74.4935 18.8019 74.7705 19.6904C75.0475 20.5789 75.617 21.3474 76.3865 21.871C77.156 22.3945 78.08 22.6421 79.0081 22.5736C79.9362 22.505 80.8138 22.1243 81.498 21.4934C82.1822 20.8625 82.6327 20.0186 82.7761 19.0991C82.9196 18.1795 82.7475 17.2385 82.288 16.4292C81.8284 15.6199 81.1085 14.99 80.2453 14.642Z" fill="white"/>
<path d="M105.403 14.7449V1.62015C105.355 1.17523 105.145 0.763637 104.812 0.464548C104.479 0.165459 104.047 0 103.6 0C103.152 0 102.721 0.165459 102.388 0.464548C102.055 0.763637 101.845 1.17523 101.797 1.62015V14.7862C100.959 15.194 100.284 15.8739 99.8818 16.7149C99.4799 17.5559 99.375 18.5084 99.5842 19.4167C99.7935 20.325 100.304 21.1356 101.034 21.716C101.763 22.2965 102.668 22.6125 103.6 22.6125C104.532 22.6125 105.437 22.2965 106.166 21.716C106.895 21.1356 107.406 20.325 107.616 19.4167C107.825 18.5084 107.72 17.5559 107.318 16.7149C106.916 15.8739 106.241 15.194 105.403 14.7862V14.7449Z" fill="white"/>
<path d="M126.11 5.72034H109.05V9.84116C112.511 11.5101 113.274 15.6927 113.171 18.4949C113.231 19.7945 113.027 21.0929 112.571 22.3115C112.115 23.5301 111.417 24.6436 110.518 25.5846C109.62 26.5257 108.54 27.2747 107.344 27.7865C106.148 28.2982 104.86 28.5621 103.559 28.5621C102.258 28.5621 100.97 28.2982 99.7741 27.7865C98.5779 27.2747 97.4979 26.5257 96.5994 25.5846C95.701 24.6436 95.0027 23.5301 94.5468 22.3115C94.0909 21.0929 93.8869 19.7945 93.9471 18.4949C93.8441 15.6515 95.3482 11.2834 97.6558 9.98538V5.69974H84.2426V9.82055C87.9307 12.2106 88.3634 14.6831 88.3634 18.5979C88.3634 21.1463 87.3525 23.5906 85.5524 25.3945C83.7524 27.1984 81.3102 28.2145 78.7619 28.22C76.2054 28.1878 73.7631 27.1566 71.9572 25.3469C70.1513 23.5371 69.1253 21.0926 69.0986 18.5361C68.9983 16.9483 69.281 15.3596 69.9228 13.9038C70.5647 12.4481 71.5468 11.1678 72.7867 10.1708V5.69974H59.7649V9.82055C61.0966 10.8203 62.1448 12.15 62.806 13.6783C63.4671 15.2066 63.7186 16.8809 63.5355 18.5361C63.5956 19.8358 63.3916 21.1341 62.9357 22.3527C62.4799 23.5713 61.7816 24.6848 60.8831 25.6258C59.9846 26.5669 58.9047 27.3159 57.7085 27.8277C56.5123 28.3395 55.2247 28.6033 53.9237 28.6033C52.6226 28.6033 51.335 28.3395 50.1388 27.8277C48.9426 27.3159 47.8627 26.5669 46.9642 25.6258C46.0657 24.6848 45.3674 23.5713 44.9116 22.3527C44.4557 21.1341 44.2517 19.8358 44.3119 18.5361C44.2048 16.8912 44.5287 15.2469 45.2513 13.7654C45.974 12.284 47.0705 11.0166 48.4327 10.0884V5.69974H35.04V9.94418C36.3897 10.8957 37.4503 12.2015 38.1048 13.7177C38.7592 15.2338 38.9821 16.9013 38.7488 18.5361C38.8089 19.8358 38.6049 21.1341 38.149 22.3527C37.6932 23.5713 36.9949 24.6848 36.0964 25.6258C35.1979 26.5669 34.118 27.3159 32.9218 27.8277C31.7256 28.3395 30.438 28.6033 29.137 28.6033C27.8359 28.6033 26.5483 28.3395 25.3521 27.8277C24.1559 27.3159 23.076 26.5669 22.1775 25.6258C21.279 24.6848 20.5807 23.5713 20.1249 22.3527C19.669 21.1341 19.465 19.8358 19.5251 18.5361C19.5251 15.5073 20.4523 11.5513 23.646 9.96478V5.72034H8.6668C7.51111 5.66064 6.3558 5.84499 5.27608 6.2614C4.19636 6.6778 3.21643 7.31692 2.40009 8.13714C1.58375 8.95737 0.949297 9.94032 0.538028 11.022C0.12676 12.1037 -0.0521013 13.2599 0.0130874 14.4153V112.655C0.0130874 117.827 3.49518 123.823 8.6668 123.823H113.748V101.55H136V14.4153C136 9.24364 131.282 5.72034 126.11 5.72034ZM38.3985 101.55H21.668V84.4691H38.3985V101.55ZM38.3985 78.1437H21.668V61.1453H38.3985V78.1437ZM38.3985 55.3144H21.7298V38.5838H38.4603L38.3985 55.3144ZM45.0742 38.5838H61.8253V55.3144H45.136L45.0742 38.5838ZM45.0742 61.4338H61.8253V78.1437H45.136L45.0742 61.4338ZM61.8665 101.55H45.2184V84.4691H61.9283L61.8665 101.55ZM85.6848 101.55H68.4804V84.4691H85.7467L85.6848 101.55ZM85.6848 78.1437H68.4598V61.4338H85.8085L85.6848 78.1437ZM85.6848 55.3144H68.3774V38.6869H85.6848V55.3144ZM109.853 101.55L92.4018 101.715V84.4691H109.853V101.55ZM109.709 78.1437H92.4018V61.3101L109.668 61.1453L109.709 78.1437ZM109.709 55.3144H92.4018V38.8311L109.73 38.6457L109.709 55.3144Z" fill="#686868"/>
</svg>
