<svg width="115" height="91" viewBox="0 0 115 91" fill="none" xmlns="http://www.w3.org/2000/svg">
<ellipse cx="56.3572" cy="47.7501" rx="46.3572" ry="38.675" fill="white"/>
<path d="M106 42.377C105.998 33.0979 102.548 24.0759 96.1815 16.6955C89.8147 9.31512 80.8821 3.9842 70.7547 1.52088C60.6272 -0.942441 49.8645 -0.402051 40.1183 3.05912C30.3721 6.52028 22.1808 12.711 16.8017 20.6811C11.4226 28.6513 9.15286 37.9604 10.3408 47.18C11.5287 56.3996 16.1086 65.0201 23.3777 71.7186C30.6468 78.417 40.2035 82.8233 50.5809 84.2612C60.9584 85.6991 71.5833 84.0891 80.825 79.6784C88.3943 83.5183 102.643 90.9756 102.643 90.9756L97.0041 67.0618C102.864 59.8726 106.011 51.2358 106 42.377ZM81.4292 59.9158H35.8289C34.6627 59.9158 33.5443 59.5066 32.7196 58.7781C31.895 58.0497 31.4317 57.0617 31.4317 56.0315C31.4317 55.0013 31.895 54.0133 32.7196 53.2848C33.5443 52.5564 34.6627 52.1471 35.8289 52.1471H81.4292C82.5954 52.1471 83.7139 52.5564 84.5385 53.2848C85.3631 54.0133 85.8264 55.0013 85.8264 56.0315C85.8264 57.0617 85.3631 58.0497 84.5385 58.7781C83.7139 59.5066 82.5954 59.9158 81.4292 59.9158ZM81.4292 45.7869H35.8289C34.6627 45.7869 33.5443 45.3777 32.7196 44.6492C31.895 43.9208 31.4317 42.9328 31.4317 41.9026C31.4317 40.8724 31.895 39.8844 32.7196 39.156C33.5443 38.4275 34.6627 38.0183 35.8289 38.0183H81.4292C82.5954 38.0183 83.7139 38.4275 84.5385 39.156C85.3631 39.8844 85.8264 40.8724 85.8264 41.9026C85.8264 42.9328 85.3631 43.9208 84.5385 44.6492C83.7139 45.3777 82.5954 45.7869 81.4292 45.7869ZM81.4292 31.6581H35.8289C34.6627 31.6581 33.5443 31.2488 32.7196 30.5204C31.895 29.7919 31.4317 28.8039 31.4317 27.7737C31.4317 26.7435 31.895 25.7556 32.7196 25.0271C33.5443 24.2986 34.6627 23.8894 35.8289 23.8894H81.4292C82.5954 23.8894 83.7139 24.2986 84.5385 25.0271C85.3631 25.7556 85.8264 26.7435 85.8264 27.7737C85.8264 28.8039 85.3631 29.7919 84.5385 30.5204C83.7139 31.2488 82.5954 31.6581 81.4292 31.6581Z" fill="#686868"/>
</svg>
