<svg width="174" height="119" viewBox="0 0 174 119" fill="none" xmlns="http://www.w3.org/2000/svg">
<path d="M56.8911 0V4.34284V13.2815H0V17.6076V118.25H173.25V13.2815H116.321V0H56.8911ZM66.5579 8.68569H106.711V13.2815V21.2573H66.5579V8.68569ZM9.62918 21.9337H56.8911V29.943H116.321V29.9256H116.34V21.9331H163.621V109.599H9.62918V21.9337ZM22.2675 36.0763V40.3522V95.4719H82.4875V36.0763H22.2675ZM31.859 44.6944H72.8771V80.5686C72.5109 79.4452 72.0546 78.3408 71.523 77.2735C70.2963 74.8111 67.1871 73.6255 64.7713 71.8488C65.367 71.0423 66.7423 70.6182 66.9905 69.8042C67.7703 67.2437 67.6281 65.0286 67.63 63.028C67.6292 55.4994 60.789 49.2406 52.4151 49.2394C44.0387 49.2371 37.1258 55.4968 37.125 63.028C37.126 64.8929 36.8778 66.9725 37.4824 69.5332C37.6858 70.3966 39.1367 70.8943 39.758 71.7806C37.2988 73.5968 34.1047 74.8218 32.9311 77.3404C32.5014 78.2627 32.1646 79.2175 31.8591 80.1792L31.859 44.6944ZM97.6835 46.0961C96.4047 46.1005 95.18 46.5599 94.2775 47.3739C93.375 48.1878 92.8682 49.29 92.8682 50.439C92.8682 51.5879 93.375 52.6901 94.2775 53.5041C95.18 54.318 96.4047 54.7775 97.6835 54.7818H147.447C148.726 54.7775 149.95 54.318 150.853 53.5041C151.755 52.6901 152.262 51.5879 152.262 50.439C152.262 49.29 151.755 48.1878 150.853 47.3739C149.95 46.5599 148.726 46.1005 147.447 46.0961H97.6835ZM52.3398 57.9077V57.925C55.4602 57.9256 57.9628 60.1292 57.9631 63.028C57.9612 65.196 57.9255 66.8878 57.7375 67.506C57.549 68.1235 58.1167 67.6281 57.2485 67.8779C56.2268 68.1421 55.3312 68.7024 54.7013 69.4719C54.0714 70.2413 53.7426 71.1766 53.7662 72.1315C53.7898 73.0864 54.1644 74.0073 54.8318 74.7508C55.4991 75.4944 56.4215 76.0187 57.4552 76.2419C59.8484 76.7721 61.4019 78.1394 62.7212 80.7874C63.4803 82.3111 63.5915 84.5944 63.9248 86.651H40.7546C41.0545 84.5633 41.116 82.2443 41.8266 80.7199C43.0568 78.0811 44.42 76.769 46.7917 76.2419C47.8282 76.0269 48.7563 75.5096 49.431 74.7707C50.1058 74.0318 50.4892 73.1129 50.5214 72.1575C50.5536 71.2022 50.2328 70.2641 49.6091 69.4898C48.9854 68.7156 48.0939 68.1489 47.0738 67.8779C46.2509 67.6484 47.0121 68.3612 46.8671 67.7558C46.7214 67.1382 46.7929 65.3412 46.792 63.0416C46.7923 60.141 49.2187 57.9207 52.3401 57.9213L52.3398 57.9077ZM147.973 62.3689C147.798 62.3661 147.622 62.3719 147.447 62.3863H97.6835C97.5456 62.381 97.4076 62.381 97.2697 62.3863C96.0673 62.5187 94.9646 63.0531 94.1816 63.8835C93.3985 64.714 92.9926 65.7794 93.0448 66.8668C93.097 67.9542 93.6035 68.9834 94.4633 69.7502C95.323 70.517 96.4729 70.9649 97.6835 71.0038H147.447C148.09 71.0554 148.739 70.99 149.354 70.8116C149.969 70.6332 150.538 70.3454 151.026 69.9653C151.515 69.5853 151.913 69.1208 152.198 68.5996C152.482 68.0783 152.647 67.511 152.682 66.9313C152.718 66.3515 152.623 65.7712 152.403 65.2251C152.184 64.679 151.844 64.1784 151.405 63.7527C150.966 63.327 150.435 62.9848 149.846 62.7471C149.256 62.5094 148.619 62.3808 147.973 62.3689H147.973ZM97.6835 78.6076C97.047 78.6052 96.4163 78.7153 95.8275 78.9325C95.2387 79.1497 94.7035 79.4695 94.2525 79.873C93.8015 80.2765 93.4436 80.7559 93.1994 81.284C92.9553 81.8121 92.8296 82.3786 92.8296 82.9505C92.8296 83.5223 92.9553 84.0882 93.1994 84.6163C93.4436 85.1444 93.8015 85.6239 94.2525 86.0274C94.7035 86.4309 95.2387 86.7507 95.8275 86.9678C96.4163 87.185 97.047 87.2951 97.6835 87.2927H147.447C148.083 87.2951 148.714 87.185 149.303 86.9678C149.892 86.7507 150.427 86.4309 150.878 86.0274C151.329 85.6239 151.687 85.1444 151.931 84.6163C152.175 84.0882 152.301 83.5223 152.301 82.9505C152.301 82.3786 152.175 81.8121 151.931 81.284C151.687 80.7559 151.329 80.2765 150.878 79.873C150.427 79.4695 149.892 79.1497 149.303 78.9325C148.714 78.7153 148.083 78.6052 147.447 78.6076H97.6835Z" fill="#686868"/>
</svg>
