<svg width="143" height="122" viewBox="0 0 143 122" fill="none" xmlns="http://www.w3.org/2000/svg">
<path d="M138.331 106.288H132.273V37.4637C132.322 35.7075 131.675 34.0032 130.471 32.723C129.268 31.4429 127.607 30.6909 125.851 30.6315H106.265C105.421 30.6705 104.594 30.8811 103.835 31.2504C103.075 31.6197 102.399 32.1398 101.847 32.7792C101.295 33.4185 100.879 34.1637 100.624 34.9691C100.37 35.7745 100.282 36.6233 100.366 37.4637V106.288H88.5466C88.5466 104.99 88.5466 104.443 88.5466 103.578V8.67701C88.5694 3.59834 85.6998 0 82.1242 0H62.5383C58.9627 0 55.501 3.59834 55.501 8.67701L55.3872 105.946V106.31H46.0497V61.1946C46.0497 58.6894 43.089 56.6397 39.5135 56.6397H19.9275C16.352 56.6397 13.0952 58.6439 13.0952 61.1946V106.288H4.0766C1.79917 106.288 0 107.039 0 108.315V119.383C0 120.658 1.82195 121.66 4.0766 121.66H138.445C140.723 121.66 143 120.681 143 119.383V108.315C142.886 107.039 140.586 106.288 138.331 106.288Z" fill="#686868"/>
<rect x="30.0813" y="60.1625" width="7.52032" height="45.1219" fill="white"/>
<rect x="75.2032" y="7.52032" width="7.52032" height="97.7641" fill="white"/>
<rect x="120.325" y="37.6016" width="7.52032" height="67.6829" fill="white"/>
</svg>
