<svg width="153" height="96" viewBox="0 0 153 96" fill="none" xmlns="http://www.w3.org/2000/svg">
<g clip-path="url(#clip0)">
<path d="M72.9141 30.9001C74.1094 30.9001 75.3047 30.9001 76.5 30.9001C77.6953 30.9001 78.6516 30.9001 79.6078 30.9001C115.228 31.8001 143.438 50.2501 143.438 72.7501H9.5625C9.5625 50.4001 37.5328 32.1001 72.9141 30.9001Z" fill="#F4F4F4"/>
<path d="M145.589 79.05H7.17188L2.39062 72.75H9.5625H143.438H150.609L145.589 79.05Z" fill="#686868"/>
<path d="M76.0216 17.1001C80.0857 17.1001 83.4325 19.2001 83.4325 21.7501C83.4325 23.5501 81.9982 25.0501 79.6075 25.8001C78.4122 26.2501 77.2169 26.4001 76.0216 26.4001C74.8263 26.4001 73.87 26.2501 72.9138 25.9501C70.2841 25.2001 68.6107 23.5501 68.6107 21.7501C68.6107 19.2001 71.9575 17.1001 76.0216 17.1001Z" fill="#F4F4F4"/>
<path d="M79.6078 30.7501C78.6516 30.7501 77.4563 30.7501 76.5 30.7501C75.3047 30.7501 74.1094 30.7501 72.9141 30.7501V25.9501C73.8703 26.2501 75.0656 26.4001 76.0219 26.4001C77.4562 26.4001 78.6516 26.2501 79.6078 25.8001V30.7501Z" fill="#686868"/>
<path d="M143.438 74.2501C142.003 74.2501 141.047 73.6501 141.047 72.7501C141.047 51.1501 114.033 33.3001 79.6078 32.2501C77.4562 32.1001 75.3047 32.1001 73.1531 32.2501C38.7281 33.4501 11.9531 51.3001 11.9531 72.7501C11.9531 73.6501 10.9969 74.2501 9.5625 74.2501C8.12812 74.2501 7.17188 73.6501 7.17188 72.7501C7.17188 49.6501 35.8594 30.6001 72.675 29.4001C75.0656 29.2501 77.4563 29.2501 79.8469 29.4001C116.902 30.4501 145.828 49.5001 145.828 72.7501C145.828 73.6501 144.872 74.2501 143.438 74.2501Z" fill="#686868"/>
<path d="M145.589 80.55H7.17163C6.21538 80.55 5.49819 80.25 5.02007 79.65L0.238816 73.5C-0.000246167 72.9 -0.000246167 72.45 0.477879 72C0.956004 71.55 1.67319 71.25 2.39038 71.25H150.609C151.326 71.25 152.283 71.55 152.761 72C153.239 72.45 153.239 73.05 152.761 73.5L147.74 79.65C147.262 80.1 146.545 80.55 145.589 80.55ZM8.606 77.55H143.915L146.545 74.4H6.21538L8.606 77.55Z" fill="#686868"/>
<path d="M125.508 63.0001C124.551 63.0001 123.595 62.5501 123.117 61.9501C118.336 52.9501 107.1 46.0501 92.5171 43.3501C91.3218 43.0501 90.6046 42.3001 90.8437 41.5501C91.3218 40.8001 92.5171 40.3501 93.7124 40.5001C109.73 43.3501 122.4 51.0001 127.42 61.0501C127.898 61.8001 127.181 62.7001 125.986 63.0001C125.986 63.0001 125.747 63.0001 125.508 63.0001Z" fill="#686868"/>
<path d="M148.219 21.9001H115.945C114.511 21.9001 113.555 21.3001 113.555 20.4001C113.555 19.5001 114.511 18.9001 115.945 18.9001H148.219C149.653 18.9001 150.609 19.5001 150.609 20.4001C150.609 21.3001 149.653 21.9001 148.219 21.9001Z" fill="#686868"/>
<path d="M148.219 30.9001H124.313C122.878 30.9001 121.922 30.3001 121.922 29.4001C121.922 28.5001 122.878 27.9001 124.313 27.9001H148.219C149.653 27.9001 150.609 28.5001 150.609 29.4001C150.609 30.3001 149.653 30.9001 148.219 30.9001Z" fill="#686868"/>
<path d="M148.218 39.9001H136.982C135.548 39.9001 134.592 39.3001 134.592 38.4001C134.592 37.5001 135.548 36.9001 136.982 36.9001H148.218C149.653 36.9001 150.609 37.5001 150.609 38.4001C150.609 39.3001 149.653 39.9001 148.218 39.9001Z" fill="#686868"/>
<path d="M76.0217 27.9001C74.5873 27.9001 73.1529 27.7501 71.9576 27.3001C68.3717 26.2501 66.2201 24.1501 66.2201 21.7501C66.2201 18.3001 70.5232 15.6001 76.0217 15.6001C81.5201 15.6001 85.8232 18.4501 85.8232 21.7501C85.8232 24.0001 83.9107 25.9501 80.8029 27.1501C79.3685 27.6001 77.6951 27.9001 76.0217 27.9001ZM76.0217 18.4501C73.1529 18.4501 71.0013 19.9501 71.0013 21.6001C71.0013 22.8001 72.1967 24.0001 73.8701 24.4501C75.3045 24.9001 77.217 24.7501 78.4123 24.3001C80.0857 23.7001 81.042 22.6501 81.042 21.6001C81.042 19.9501 78.8904 18.4501 76.0217 18.4501Z" fill="#686868"/>
<path d="M72.9141 32.4001C71.4797 32.4001 70.5235 31.8001 70.5235 30.9001V26.1001C70.5235 25.2001 71.4797 24.6001 72.9141 24.6001C74.3485 24.6001 75.3047 25.2001 75.3047 26.1001V30.9001C75.3047 31.6501 74.1094 32.4001 72.9141 32.4001Z" fill="#686868"/>
<path d="M79.6074 32.2501C78.173 32.2501 77.2168 31.6501 77.2168 30.7501V25.8001C77.2168 24.9001 78.173 24.3001 79.6074 24.3001C81.0418 24.3001 81.998 24.9001 81.998 25.8001V30.7501C81.998 31.6501 81.0418 32.2501 79.6074 32.2501Z" fill="#686868"/>
<path d="M83.6719 42.15H83.4329C81.5204 42 79.6079 42 77.6954 42C76.261 42 75.3047 41.4 75.3047 40.5C75.3047 39.6 76.261 39 77.6954 39C79.8469 39 81.7594 39 83.911 39.15C85.1063 39.3 86.0626 40.05 86.0626 40.8C85.8235 41.7 84.8672 42.15 83.6719 42.15Z" fill="#686868"/>
</g>
<defs>
<clipPath id="clip0">
<rect width="153" height="96" fill="white"/>
</clipPath>
</defs>
</svg>
