<svg width="92" height="129" viewBox="0 0 92 129" fill="none" xmlns="http://www.w3.org/2000/svg">
<path d="M47.2581 47.2098C39.6202 47.2098 33.0243 42.4373 30.7505 35.0577C30.7224 34.9777 30.7013 34.8957 30.6873 34.8126C30.5663 33.8356 29.9847 33.2648 29.0618 32.7327C25.8 30.8408 24.0571 26.3923 25.1209 22.9962C25.5032 21.6557 26.4391 20.5095 27.7253 19.8067C27.98 19.6674 28.175 19.2561 28.1931 18.9674C28.3502 16.3654 28.5814 13.7735 29.5061 11.2923C30.848 7.68818 33.1869 4.97541 37.3589 3.97994C37.4711 3.9405 37.5873 3.91181 37.7057 3.89432C39.3836 3.82885 40.6984 3.48136 41.605 1.83456C42.3835 0.437881 44.2329 0.112214 45.8746 0.0282787C53.7437 -0.369573 64.2966 3.3756 66.8396 14.4651C67.1575 15.8517 67.2117 17.2887 67.4212 18.6988C67.4663 18.9976 67.562 19.4072 67.7914 19.5381C69.4386 20.5453 70.1827 22.0377 70.3976 23.76C70.7407 26.5064 70.1122 29.0765 68.2303 31.2504C67.5566 32.031 66.5886 32.6337 65.6494 33.1541C65.1329 33.4378 64.8583 33.7131 64.7048 34.2267C63.3466 38.8247 60.7314 42.5833 56.2162 45.046C53.5577 46.5199 50.6625 47.2669 47.2581 47.2098ZM32.5656 19.5885C32.5656 20.035 32.5566 20.4832 32.5656 20.9314C32.5981 22.3281 31.9786 23.0869 30.4868 23.2984C29.6759 23.4126 29.3165 23.8238 29.2641 24.5104C29.2008 25.0092 29.2185 25.5139 29.3165 26.0078C29.7319 27.6311 30.3911 29.1974 32.3182 29.6708C33.6583 30.0065 34.2398 30.6629 34.5126 31.8732C34.8376 33.3135 35.2133 34.7807 35.8653 36.1102C39.2969 43.1071 48.6885 45.38 55.1669 40.8358C58.5027 38.499 60.1517 35.2524 60.885 31.5324C61.136 30.2533 61.7988 29.706 63.1534 29.5566C63.6266 29.5046 64.2081 29.3333 64.5043 29.0211C65.9221 27.5271 66.4459 25.7627 65.9203 23.8171C65.839 23.5133 65.3568 23.1624 64.9992 23.0886C63.5543 22.7914 63.0125 22.0478 62.9854 20.6612C62.9385 18.7726 62.9168 16.8371 62.4635 15.0123C60.4768 6.99656 52.9635 4.08066 46.868 4.02694C45.3274 4.01351 44.8 4.53055 44.6447 5.95912C44.5976 6.45188 44.3532 6.91025 43.9599 7.24351C43.5666 7.57677 43.0529 7.76063 42.5207 7.75869C41.9789 7.75869 41.4371 7.71504 40.8952 7.71504C37.312 7.71504 35.049 9.15201 33.7992 12.261C32.8528 14.6162 32.6577 17.0956 32.5656 19.5885Z" fill="#8E8E92"/>
<path d="M20.4087 124.704C20.1811 122.81 19.9553 120.95 19.7332 119.092C19.0276 113.176 18.322 107.26 17.6165 101.343C17.1035 97.0119 16.6014 92.6769 16.1102 88.3381C15.9079 86.5301 15.1746 85.867 13.2204 85.8636C10.6016 85.8636 7.98281 85.8636 5.3658 85.8636H4.42664V77.9737H87.6166V85.8032C87.3222 85.8234 87.0368 85.8586 86.7514 85.8586C84.1019 85.867 81.4542 85.8586 78.8047 85.8754C76.818 85.8838 76.1443 86.4613 75.9312 88.2592C75.2088 94.345 74.4864 100.429 73.7639 106.512C73.0788 112.29 72.3985 118.068 71.723 123.848C71.6905 124.121 71.6327 124.395 71.5804 124.704H20.4087ZM46.0695 109.596H59.8842C62.0822 109.596 64.2802 109.607 66.4764 109.58C67.8346 109.564 68.7033 108.731 68.6979 107.532C68.6979 106.215 67.7334 105.498 65.9887 105.498H39.8006C35.1661 105.498 30.5299 105.486 25.8937 105.498C24.2412 105.498 23.2857 106.302 23.2912 107.574C23.2966 108.847 24.2646 109.589 25.9244 109.589C32.6467 109.594 39.3629 109.599 46.0731 109.602L46.0695 109.596ZM46.0153 97.1194C52.7869 97.1194 59.5579 97.1194 66.3283 97.1194C67.7966 97.1194 68.6906 96.3438 68.7051 95.1402C68.7213 93.8895 67.8255 93.1056 66.3102 93.0921C64.0544 93.0737 61.795 93.0787 59.541 93.0787C48.2879 93.0787 37.033 93.0787 25.7763 93.0787C24.2159 93.0787 23.2785 93.8761 23.3092 95.1536C23.3363 96.3908 24.2737 97.1227 25.7944 97.1227C32.5371 97.1238 39.2786 97.125 46.0189 97.1261L46.0153 97.1194Z" fill="#686868"/>
<path d="M76.4622 73.8237H15.5666C15.6764 71.5191 16.2065 69.2485 17.1343 67.1089C20.4105 59.4698 26.3043 54.4952 34.8158 52.1854C35.3342 52.0444 35.6719 52.0897 36.0945 52.4405C39.1008 54.9683 42.9751 56.4215 47.0269 56.5411C51.0787 56.6607 55.0445 55.4389 58.2172 53.0935C58.6308 52.7897 58.9667 52.6537 59.5068 52.8602C69.2271 56.5869 74.8982 63.2496 76.4099 72.939C76.4532 73.2076 76.4442 73.4879 76.4622 73.8237Z" fill="#8E8E92"/>
</svg>
